<?xml version="1.0" encoding="UTF-8" standalone="no"?>
<svg width="153px" height="40px" viewBox="0 0 153 40" version="1.1" xmlns="http://www.w3.org/2000/svg" xmlns:xlink="http://www.w3.org/1999/xlink">
    <!-- Generator: Sketch 39.1 (31720) - http://www.bohemiancoding.com/sketch -->
    <title>Page 1</title>
    <desc>Created with Sketch.</desc>
    <defs>
        <polygon id="path-1" points="152.911123 0 0 0 0 39.9274011 152.911123 39.9274011 152.911123 6.07951004e-15"></polygon>
    </defs>
    <g id="Formação---listagem-+-singles" stroke="none" stroke-width="1" fill="none" fill-rule="evenodd">
        <g id="Page-1">
            <mask id="mask-2" fill="white">
                <use href="#path-1"></use>
            </mask>
            <g id="Clip-2"></g>
            <path d="M12.6125134,34.4140321 C12.6125134,31.3693262 15.0809626,28.9015187 18.1256684,28.9015187 C21.1705882,28.9015187 23.6390374,31.3693262 23.6390374,34.4140321 C23.6390374,37.4595936 21.1705882,39.9274011 18.1256684,39.9274011 C15.0809626,39.9274011 12.6125134,37.4595936 12.6125134,34.4140321 L12.6125134,34.4140321 Z M12.6125134,19.9682567 C12.6125134,16.923123 15.0809626,14.4551016 18.1256684,14.4551016 C21.1705882,14.4551016 23.6390374,16.923123 23.6390374,19.9682567 C23.6390374,23.0129626 21.1705882,25.4811979 18.1256684,25.4811979 C15.0809626,25.4811979 12.6125134,23.0129626 12.6125134,19.9682567 L12.6125134,19.9682567 Z M12.6125134,5.51371123 C12.6125134,2.46772193 15.0809626,-8.55614973e-05 18.1256684,-8.55614973e-05 C21.1705882,-8.55614973e-05 23.6390374,2.46772193 23.6390374,5.51371123 C23.6390374,8.5577754 21.1705882,11.0262246 18.1256684,11.0262246 C15.0809626,11.0262246 12.6125134,8.5577754 12.6125134,5.51371123 L12.6125134,5.51371123 Z M27.7183957,32.0234439 C25.079893,30.5025882 24.1744385,27.1329626 25.6957219,24.4968128 C27.2167914,21.8604492 30.5887701,20.9569198 33.2268449,22.4782032 C35.8651337,23.9994866 36.7708021,27.3693262 35.2495187,30.005262 C33.7284492,32.6414118 30.3564706,33.5449412 27.7183957,32.0234439 L27.7183957,32.0234439 Z M2.76074866,17.6136043 C0.122245989,16.092107 -0.783208556,12.7220535 0.73828877,10.0863316 C2.25935829,7.44996791 5.63112299,6.5464385 8.26941176,8.06750802 C10.9077005,9.58879144 11.813369,12.9588449 10.2920856,15.5954225 C8.77080214,18.2309305 5.39882353,19.1344599 2.76074866,17.6136043 L2.76074866,17.6136043 Z M33.2409626,17.5815187 C30.6026738,19.1051551 27.2287701,18.2029091 25.7053476,15.567615 C24.1819251,12.9312513 25.0854545,9.55948663 27.7235294,8.03627807 C30.3618182,6.51242781 33.7357219,7.41403209 35.2589305,10.0499679 C36.7827807,12.6856898 35.8792513,16.0580963 33.2409626,17.5815187 L33.2409626,17.5815187 Z M8.29229947,32.0373476 C5.6542246,33.5611979 2.28010695,32.6598075 0.756684492,30.0236578 C-0.766951872,27.3872941 0.13657754,24.0155294 2.77508021,22.492107 C5.41315508,20.9688984 8.78684492,21.8700749 10.3104813,24.5064385 C11.8341176,27.1421604 10.9308021,30.514139 8.29229947,32.0373476 L8.29229947,32.0373476 Z M52.1293048,10.647615 L52.1293048,30.3644064 C52.1293048,30.7733904 51.7705882,31.1323209 51.3618182,31.1323209 L46.7145455,31.1323209 C46.3062032,31.1323209 45.9470588,30.7733904 45.9470588,30.3644064 L45.9470588,8.38857754 C45.9470588,8.16825668 46.228984,7.75413904 46.4339037,7.67371123 C48.388984,6.9060107 50.9059893,6.42472727 53.8758289,6.42472727 C60.995615,6.42472727 64.1765775,9.50836364 64.1765775,14.2123209 C64.1765775,16.9368128 61.9479144,19.4865455 59.3981818,20.1590588 L64.5761497,30.007615 C64.8982888,30.6198075 64.5883422,31.1323209 63.8965775,31.1323209 L58.1297326,31.1323209 C57.8713369,31.1323209 57.4674866,30.8317861 57.3941176,30.5834439 L53.7314439,19.8091123 C53.6011765,19.3710374 53.8640642,18.9306096 54.3119786,18.8377754 C56.4341176,18.3988449 58.7554011,16.8377754 58.7554011,14.5659037 C58.7554011,11.7755294 56.680107,10.3894332 53.946631,10.3894332 C53.6991444,10.3894332 53.3154011,10.4069733 52.9586096,10.4382032 C52.78,10.4533904 52.6084492,10.4726417 52.4634225,10.4944599 C52.3607487,10.5096471 52.2713369,10.5261176 52.202246,10.5438717 L52.1293048,10.647615 Z M77.7874866,26.5881497 L77.7874866,12.820877 C77.7874866,12.4125348 78.1464171,12.0531765 78.5549733,12.0531765 L83.7455615,12.0531765 C84.1541176,12.0531765 84.5130481,12.4125348 84.5130481,12.820877 L84.5130481,29.5036578 C84.5130481,29.7137112 84.2364706,30.1299679 84.0424599,30.2114652 C82.1504813,31.0048342 79.4719786,31.4861176 75.9468449,31.4861176 C70.240107,31.4861176 67.3096257,29.6044064 67.3096257,24.6544599 L67.3096257,12.820877 C67.3096257,12.4125348 67.6687701,12.0531765 68.0773262,12.0531765 L73.2674866,12.0531765 C73.6764706,12.0531765 74.0351872,12.4125348 74.0351872,12.820877 L74.0351872,25.1500749 C74.0351872,26.1107166 74.5703743,26.9907166 76.0531551,26.9907166 C76.7566845,26.9907166 77.2698396,26.8959572 77.7126203,26.7055829 L77.7874866,26.5881497 Z M94.9819251,16.2056898 L94.9819251,30.3644064 C94.9819251,30.7733904 94.6227807,31.1323209 94.2140107,31.1323209 L89.0238503,31.1323209 C88.615508,31.1323209 88.2561497,30.7733904 88.2561497,30.3644064 L88.2561497,13.6647273 C88.2561497,13.4444064 88.5382888,13.0302888 88.7427807,12.9496471 C90.9160428,12.096385 93.3164706,11.6993797 96.5395722,11.6993797 C99.7960428,11.6993797 101.600963,12.5130695 102.663422,13.3977754 C103.831123,12.5490053 105.778503,11.6993797 109.17615,11.6993797 C113.711123,11.6993797 116.397754,14.2508235 116.397754,17.9291123 L116.397754,30.3644064 C116.397754,30.7733904 116.03861,31.1323209 115.630053,31.1323209 L110.439893,31.1323209 C110.031337,31.1323209 109.672193,30.7733904 109.672193,30.3644064 L109.672193,17.894246 C109.672193,16.6957433 108.863422,15.8758503 107.37123,15.8758503 C106.698717,15.8758503 106.131872,16.0529626 105.671765,16.3712513 L105.671765,30.3644064 C105.671765,30.7733904 105.31262,31.1323209 104.904278,31.1323209 L99.7139037,31.1323209 C99.3057754,31.1323209 98.9464171,30.7733904 98.9464171,30.3644064 L98.9464171,17.894246 C98.9464171,16.6617326 98.1397861,15.8758503 96.6101604,15.8758503 C95.9417112,15.8758503 95.4940107,15.9389519 95.0593583,16.0953155 L94.9819251,16.2056898 Z M119.500214,21.5748877 C119.500214,15.8726417 122.723957,11.6993797 128.384706,11.6993797 C134.116257,11.6993797 137.30492,15.8726417 137.30492,21.5748877 C137.30492,27.3124278 134.08139,31.4861176 128.384706,31.4861176 C122.688877,31.4861176 119.500214,27.3124278 119.500214,21.5748877 L119.500214,21.5748877 Z M128.384706,15.8758503 C127.469626,15.8758503 126.909198,16.4707166 126.579572,17.4777754 C126.252299,18.4779893 126.155187,19.8756364 126.155187,21.4690053 C126.155187,23.0792727 126.261283,24.4506096 126.59262,25.4200214 C126.926738,26.3954225 127.486952,26.9558503 128.384706,26.9558503 C129.300214,26.9558503 129.860642,26.3954225 130.190053,25.4200214 C130.51754,24.4506096 130.614866,23.0792727 130.614866,21.4690053 C130.614866,19.8756364 130.51754,18.4779893 130.190053,17.4777754 C129.860214,16.4707166 129.299786,15.8758503 128.384706,15.8758503 L128.384706,15.8758503 Z M139.914118,30.3836578 C139.579572,30.2225882 139.396043,29.7511444 139.534011,29.4065455 L140.637754,26.6478289 C140.809733,26.2170267 141.291444,26.0379893 141.703422,26.2514652 C142.436684,26.6309305 143.354118,26.8846203 144.238396,26.8846203 C145.279037,26.8846203 146.008235,26.2722139 146.008235,25.3979893 C146.008235,24.4816257 145.514545,23.8760642 143.914973,23.200984 C140.525668,21.8213048 139.742995,19.8752086 139.742995,17.894246 C139.742995,14.4262246 142.466417,11.6993797 146.46877,11.6993797 C148.726738,11.6993797 150.266203,12.0225882 151.818075,12.8065455 C152.150267,12.9746738 152.323957,13.4493262 152.178717,13.7922139 L151.203316,16.0893262 C151.030481,16.4968128 150.551337,16.674139 150.155187,16.4773476 C149.559037,16.180877 148.813155,15.9466524 148.061283,15.9466524 C146.925027,15.9466524 146.362246,16.6225882 146.362246,17.4334973 C146.362246,18.4228021 147.104492,19.0615187 148.454011,19.6645134 C152.095294,21.2572406 152.911123,23.0277219 152.911123,25.2204492 C152.911123,28.7924278 150.083957,31.4510374 145.265134,31.4510374 C143.139572,31.4510374 141.215294,31.0095401 139.914118,30.3836578 L139.914118,30.3836578 Z" id="Fill-1" fill="#FFFFFF" mask="url(#mask-2)"></path>
        </g>
    </g>
</svg>